<svg xmlns="http://www.w3.org/2000/svg" xmlns:xlink="http://www.w3.org/1999/xlink" width="100" zoomAndPan="magnify" viewBox="0 0 75 30.000001" height="40" preserveAspectRatio="xMidYMid meet" version="1.0"><defs><g/></defs><g fill="#ffffff" fill-opacity="1"><g transform="translate(1.926961, 17.300057)"><g><path d="M 8.953125 -3.046875 C 9.460938 -3.046875 9.957031 -3.125 10.4375 -3.28125 C 10.925781 -3.4375 11.285156 -3.585938 11.515625 -3.734375 L 11.859375 -3.96875 L 13.296875 -1.09375 C 13.242188 -1.0625 13.175781 -1.015625 13.09375 -0.953125 C 13.007812 -0.890625 12.8125 -0.773438 12.5 -0.609375 C 12.195312 -0.453125 11.875 -0.3125 11.53125 -0.1875 C 11.1875 -0.0703125 10.734375 0.03125 10.171875 0.125 C 9.609375 0.21875 9.03125 0.265625 8.4375 0.265625 C 7.0625 0.265625 5.753906 -0.0703125 4.515625 -0.75 C 3.285156 -1.425781 2.289062 -2.351562 1.53125 -3.53125 C 0.78125 -4.71875 0.40625 -6 0.40625 -7.375 C 0.40625 -8.414062 0.625 -9.410156 1.0625 -10.359375 C 1.507812 -11.316406 2.101562 -12.132812 2.84375 -12.8125 C 3.582031 -13.5 4.441406 -14.046875 5.421875 -14.453125 C 6.398438 -14.859375 7.40625 -15.0625 8.4375 -15.0625 C 9.382812 -15.0625 10.257812 -14.945312 11.0625 -14.71875 C 11.875 -14.5 12.453125 -14.273438 12.796875 -14.046875 L 13.296875 -13.703125 L 11.859375 -10.828125 C 11.773438 -10.898438 11.648438 -10.988281 11.484375 -11.09375 C 11.316406 -11.195312 10.976562 -11.332031 10.46875 -11.5 C 9.96875 -11.664062 9.460938 -11.75 8.953125 -11.75 C 8.140625 -11.75 7.410156 -11.613281 6.765625 -11.34375 C 6.117188 -11.082031 5.601562 -10.738281 5.21875 -10.3125 C 4.84375 -9.882812 4.554688 -9.421875 4.359375 -8.921875 C 4.171875 -8.421875 4.078125 -7.914062 4.078125 -7.40625 C 4.078125 -6.28125 4.492188 -5.269531 5.328125 -4.375 C 6.171875 -3.488281 7.378906 -3.046875 8.953125 -3.046875 Z M 8.953125 -3.046875 "/></g></g></g><g fill="#ffffff" fill-opacity="1"><g transform="translate(14.533451, 17.300057)"><g><path d="M 8.953125 -3.046875 C 9.460938 -3.046875 9.957031 -3.125 10.4375 -3.28125 C 10.925781 -3.4375 11.285156 -3.585938 11.515625 -3.734375 L 11.859375 -3.96875 L 13.296875 -1.09375 C 13.242188 -1.0625 13.175781 -1.015625 13.09375 -0.953125 C 13.007812 -0.890625 12.8125 -0.773438 12.5 -0.609375 C 12.195312 -0.453125 11.875 -0.3125 11.53125 -0.1875 C 11.1875 -0.0703125 10.734375 0.03125 10.171875 0.125 C 9.609375 0.21875 9.03125 0.265625 8.4375 0.265625 C 7.0625 0.265625 5.753906 -0.0703125 4.515625 -0.75 C 3.285156 -1.425781 2.289062 -2.351562 1.53125 -3.53125 C 0.78125 -4.71875 0.40625 -6 0.40625 -7.375 C 0.40625 -8.414062 0.625 -9.410156 1.0625 -10.359375 C 1.507812 -11.316406 2.101562 -12.132812 2.84375 -12.8125 C 3.582031 -13.5 4.441406 -14.046875 5.421875 -14.453125 C 6.398438 -14.859375 7.40625 -15.0625 8.4375 -15.0625 C 9.382812 -15.0625 10.257812 -14.945312 11.0625 -14.71875 C 11.875 -14.5 12.453125 -14.273438 12.796875 -14.046875 L 13.296875 -13.703125 L 11.859375 -10.828125 C 11.773438 -10.898438 11.648438 -10.988281 11.484375 -11.09375 C 11.316406 -11.195312 10.976562 -11.332031 10.46875 -11.5 C 9.96875 -11.664062 9.460938 -11.75 8.953125 -11.75 C 8.140625 -11.75 7.410156 -11.613281 6.765625 -11.34375 C 6.117188 -11.082031 5.601562 -10.738281 5.21875 -10.3125 C 4.84375 -9.882812 4.554688 -9.421875 4.359375 -8.921875 C 4.171875 -8.421875 4.078125 -7.914062 4.078125 -7.40625 C 4.078125 -6.28125 4.492188 -5.269531 5.328125 -4.375 C 6.171875 -3.488281 7.378906 -3.046875 8.953125 -3.046875 Z M 8.953125 -3.046875 "/></g></g></g><g fill="#ffffff" fill-opacity="1"><g transform="translate(27.139941, 17.300057)"><g><path d="M 1.078125 -14.796875 L 6.375 -14.796875 C 7.789062 -14.796875 8.945312 -14.414062 9.84375 -13.65625 C 10.738281 -12.894531 11.1875 -11.8125 11.1875 -10.40625 C 11.1875 -9.3125 10.914062 -8.394531 10.375 -7.65625 C 9.832031 -6.925781 9.09375 -6.410156 8.15625 -6.109375 L 13.25 0 L 8.96875 0 L 4.453125 -5.84375 L 4.453125 0 L 1.078125 0 Z M 4.453125 -8.234375 L 4.84375 -8.234375 C 5.15625 -8.234375 5.414062 -8.238281 5.625 -8.25 C 5.84375 -8.257812 6.085938 -8.300781 6.359375 -8.375 C 6.640625 -8.445312 6.863281 -8.546875 7.03125 -8.671875 C 7.195312 -8.804688 7.335938 -9 7.453125 -9.25 C 7.578125 -9.5 7.640625 -9.800781 7.640625 -10.15625 C 7.640625 -10.519531 7.578125 -10.828125 7.453125 -11.078125 C 7.335938 -11.335938 7.195312 -11.53125 7.03125 -11.65625 C 6.863281 -11.789062 6.640625 -11.894531 6.359375 -11.96875 C 6.085938 -12.039062 5.84375 -12.082031 5.625 -12.09375 C 5.414062 -12.101562 5.15625 -12.109375 4.84375 -12.109375 L 4.453125 -12.109375 Z M 4.453125 -8.234375 "/></g></g></g><g fill="#ffffff" fill-opacity="1"><g transform="translate(39.082894, 17.300057)"><g><path d="M 8.59375 -14.796875 L 14.5625 0 L 10.9375 0 L 9.84375 -2.953125 L 4.21875 -2.953125 L 3.125 0 L -0.5 0 L 5.46875 -14.796875 Z M 8.703125 -5.921875 L 7.046875 -10.21875 L 7.015625 -10.21875 L 5.359375 -5.921875 Z M 8.703125 -5.921875 "/></g></g></g><g fill="#ffffff" fill-opacity="1"><g transform="translate(52.245315, 17.300057)"><g><path d="M 9.625 -14.796875 L 9.625 -11.84375 L 4.453125 -11.84375 L 4.453125 -8.890625 L 9.234375 -8.890625 L 9.234375 -5.9375 L 4.453125 -5.9375 L 4.453125 0 L 1.078125 0 L 1.078125 -14.796875 Z M 9.625 -14.796875 "/></g></g></g><g fill="#ffffff" fill-opacity="1"><g transform="translate(61.516197, 17.300057)"><g><path d="M 0.140625 -11.84375 L 0.140625 -14.796875 L 10.546875 -14.796875 L 10.546875 -11.84375 L 7.03125 -11.84375 L 7.03125 0 L 3.65625 0 L 3.65625 -11.84375 Z M 0.140625 -11.84375 "/></g></g></g><g fill="#ffffff" fill-opacity="1"><g transform="translate(2.267784, 22.004224)"><g><path d="M 1.265625 0 L 0.203125 0 C 0.171875 0 0.15625 -0.015625 0.15625 -0.046875 L 0.15625 -0.234375 C 0.15625 -0.265625 0.171875 -0.28125 0.203125 -0.28125 L 0.484375 -0.28125 L 0.484375 -2.375 L 0.203125 -2.375 C 0.171875 -2.375 0.15625 -2.390625 0.15625 -2.421875 L 0.15625 -2.609375 C 0.15625 -2.640625 0.171875 -2.65625 0.203125 -2.65625 L 1.203125 -2.65625 C 1.609375 -2.65625 1.929688 -2.535156 2.171875 -2.296875 C 2.421875 -2.066406 2.546875 -1.742188 2.546875 -1.328125 C 2.546875 -0.921875 2.429688 -0.597656 2.203125 -0.359375 C 1.972656 -0.117188 1.660156 0 1.265625 0 Z M 0.8125 -0.28125 L 1.171875 -0.28125 C 1.859375 -0.28125 2.203125 -0.628906 2.203125 -1.328125 C 2.203125 -1.660156 2.113281 -1.914062 1.9375 -2.09375 C 1.757812 -2.28125 1.503906 -2.375 1.171875 -2.375 L 0.8125 -2.375 Z M 0.8125 -0.28125 "/></g></g></g><g fill="#ffffff" fill-opacity="1"><g transform="translate(5.195585, 22.004224)"><g><path d="M 1.109375 0 L 0.21875 0 C 0.1875 0 0.171875 -0.015625 0.171875 -0.046875 L 0.171875 -0.234375 C 0.171875 -0.265625 0.1875 -0.28125 0.21875 -0.28125 L 0.5 -0.28125 L 0.5 -2.375 L 0.21875 -2.375 C 0.1875 -2.375 0.171875 -2.390625 0.171875 -2.421875 L 0.171875 -2.609375 C 0.171875 -2.640625 0.1875 -2.65625 0.21875 -2.65625 L 1.109375 -2.65625 C 1.140625 -2.65625 1.15625 -2.640625 1.15625 -2.609375 L 1.15625 -2.421875 C 1.15625 -2.390625 1.140625 -2.375 1.109375 -2.375 L 0.828125 -2.375 L 0.828125 -0.28125 L 1.109375 -0.28125 C 1.140625 -0.28125 1.15625 -0.265625 1.15625 -0.234375 L 1.15625 -0.046875 C 1.15625 -0.015625 1.140625 0 1.109375 0 Z M 1.109375 0 "/></g></g></g><g fill="#ffffff" fill-opacity="1"><g transform="translate(6.722485, 22.004224)"><g><path d="M 2.5625 0 L 2.359375 0 C 2.328125 0 2.3125 -0.015625 2.3125 -0.046875 L 2.3125 -0.296875 C 2.09375 -0.078125 1.800781 0.03125 1.4375 0.03125 C 1.082031 0.03125 0.78125 -0.09375 0.53125 -0.34375 C 0.289062 -0.601562 0.171875 -0.9375 0.171875 -1.34375 C 0.171875 -1.613281 0.234375 -1.851562 0.359375 -2.0625 C 0.484375 -2.269531 0.640625 -2.425781 0.828125 -2.53125 C 1.015625 -2.632812 1.21875 -2.6875 1.4375 -2.6875 C 1.8125 -2.6875 2.082031 -2.566406 2.25 -2.328125 L 2.25 -2.609375 C 2.25 -2.640625 2.265625 -2.65625 2.296875 -2.65625 L 2.5 -2.65625 C 2.53125 -2.65625 2.546875 -2.640625 2.546875 -2.609375 L 2.546875 -1.84375 C 2.546875 -1.820312 2.53125 -1.8125 2.5 -1.8125 L 2.265625 -1.8125 C 2.234375 -1.8125 2.21875 -1.820312 2.21875 -1.84375 L 2.21875 -1.890625 C 2.21875 -2.003906 2.144531 -2.113281 2 -2.21875 C 1.851562 -2.320312 1.660156 -2.375 1.421875 -2.375 C 1.191406 -2.375 0.984375 -2.273438 0.796875 -2.078125 C 0.609375 -1.890625 0.515625 -1.632812 0.515625 -1.3125 C 0.515625 -1 0.609375 -0.75 0.796875 -0.5625 C 0.984375 -0.375 1.191406 -0.28125 1.421875 -0.28125 C 1.660156 -0.28125 1.847656 -0.316406 1.984375 -0.390625 C 2.117188 -0.460938 2.21875 -0.550781 2.28125 -0.65625 L 2.28125 -0.953125 L 1.59375 -0.953125 C 1.5625 -0.953125 1.546875 -0.96875 1.546875 -1 L 1.546875 -1.171875 C 1.546875 -1.191406 1.5625 -1.203125 1.59375 -1.203125 L 2.5625 -1.203125 C 2.582031 -1.203125 2.59375 -1.191406 2.59375 -1.171875 L 2.59375 -0.046875 C 2.59375 -0.015625 2.582031 0 2.5625 0 Z M 2.5625 0 "/></g></g></g><g fill="#ffffff" fill-opacity="1"><g transform="translate(9.687345, 22.004224)"><g><path d="M 1.109375 0 L 0.21875 0 C 0.1875 0 0.171875 -0.015625 0.171875 -0.046875 L 0.171875 -0.234375 C 0.171875 -0.265625 0.1875 -0.28125 0.21875 -0.28125 L 0.5 -0.28125 L 0.5 -2.375 L 0.21875 -2.375 C 0.1875 -2.375 0.171875 -2.390625 0.171875 -2.421875 L 0.171875 -2.609375 C 0.171875 -2.640625 0.1875 -2.65625 0.21875 -2.65625 L 1.109375 -2.65625 C 1.140625 -2.65625 1.15625 -2.640625 1.15625 -2.609375 L 1.15625 -2.421875 C 1.15625 -2.390625 1.140625 -2.375 1.109375 -2.375 L 0.828125 -2.375 L 0.828125 -0.28125 L 1.109375 -0.28125 C 1.140625 -0.28125 1.15625 -0.265625 1.15625 -0.234375 L 1.15625 -0.046875 C 1.15625 -0.015625 1.140625 0 1.109375 0 Z M 1.109375 0 "/></g></g></g><g fill="#ffffff" fill-opacity="1"><g transform="translate(11.214245, 22.004224)"><g><path d="M 1.765625 0 L 0.90625 0 C 0.875 0 0.859375 -0.015625 0.859375 -0.046875 L 0.859375 -0.234375 C 0.859375 -0.265625 0.875 -0.28125 0.90625 -0.28125 L 1.1875 -0.28125 L 1.1875 -2.375 L 0.484375 -2.375 L 0.484375 -1.984375 C 0.484375 -1.953125 0.46875 -1.9375 0.4375 -1.9375 L 0.234375 -1.9375 C 0.191406 -1.9375 0.171875 -1.953125 0.171875 -1.984375 L 0.171875 -2.609375 C 0.171875 -2.640625 0.191406 -2.65625 0.234375 -2.65625 L 2.46875 -2.65625 C 2.5 -2.65625 2.515625 -2.640625 2.515625 -2.609375 L 2.515625 -1.984375 C 2.515625 -1.953125 2.5 -1.9375 2.46875 -1.9375 L 2.25 -1.9375 C 2.21875 -1.9375 2.203125 -1.953125 2.203125 -1.984375 L 2.203125 -2.375 L 1.515625 -2.375 L 1.515625 -0.28125 L 1.765625 -0.28125 C 1.804688 -0.28125 1.828125 -0.265625 1.828125 -0.234375 L 1.828125 -0.046875 C 1.828125 -0.015625 1.804688 0 1.765625 0 Z M 1.765625 0 "/></g></g></g><g fill="#ffffff" fill-opacity="1"><g transform="translate(14.093865, 22.004224)"><g><path d="M 2.84375 0 L 2 0 C 1.976562 0 1.96875 -0.015625 1.96875 -0.046875 L 1.96875 -0.234375 C 1.96875 -0.265625 1.976562 -0.28125 2 -0.28125 L 2.265625 -0.28125 L 2.03125 -0.921875 L 1 -0.921875 L 0.75 -0.28125 L 1.015625 -0.28125 C 1.046875 -0.28125 1.0625 -0.265625 1.0625 -0.234375 L 1.0625 -0.046875 C 1.0625 -0.015625 1.046875 0 1.015625 0 L 0.171875 0 C 0.148438 0 0.140625 -0.015625 0.140625 -0.046875 L 0.140625 -0.234375 C 0.140625 -0.265625 0.148438 -0.28125 0.171875 -0.28125 L 0.421875 -0.28125 L 1.21875 -2.375 L 1.015625 -2.375 C 0.984375 -2.375 0.96875 -2.390625 0.96875 -2.421875 L 0.96875 -2.609375 C 0.96875 -2.640625 0.984375 -2.65625 1.015625 -2.65625 L 1.53125 -2.65625 C 1.582031 -2.65625 1.625 -2.640625 1.65625 -2.609375 C 1.6875 -2.585938 1.710938 -2.550781 1.734375 -2.5 L 2.59375 -0.28125 L 2.84375 -0.28125 C 2.875 -0.28125 2.890625 -0.265625 2.890625 -0.234375 L 2.890625 -0.046875 C 2.890625 -0.015625 2.875 0 2.84375 0 Z M 1.921875 -1.171875 L 1.515625 -2.28125 L 1.5 -2.28125 L 1.09375 -1.171875 Z M 1.921875 -1.171875 "/></g></g></g><g fill="#ffffff" fill-opacity="1"><g transform="translate(17.395978, 22.004224)"><g><path d="M 2.25 0 L 0.21875 0 C 0.1875 0 0.171875 -0.015625 0.171875 -0.046875 L 0.171875 -0.234375 C 0.171875 -0.265625 0.1875 -0.28125 0.21875 -0.28125 L 0.5 -0.28125 L 0.5 -2.375 L 0.21875 -2.375 C 0.1875 -2.375 0.171875 -2.390625 0.171875 -2.421875 L 0.171875 -2.609375 C 0.171875 -2.640625 0.1875 -2.65625 0.21875 -2.65625 L 1.109375 -2.65625 C 1.140625 -2.65625 1.15625 -2.640625 1.15625 -2.609375 L 1.15625 -2.421875 C 1.15625 -2.390625 1.140625 -2.375 1.109375 -2.375 L 0.828125 -2.375 L 0.828125 -0.28125 L 2 -0.28125 L 2 -0.640625 C 2 -0.671875 2.019531 -0.6875 2.0625 -0.6875 L 2.25 -0.6875 C 2.28125 -0.6875 2.296875 -0.671875 2.296875 -0.640625 L 2.296875 -0.046875 C 2.296875 -0.015625 2.28125 0 2.25 0 Z M 2.25 0 "/></g></g></g><g fill="#ffffff" fill-opacity="1"><g transform="translate(20.06435, 22.004224)"><g/></g></g><g fill="#ffffff" fill-opacity="1"><g transform="translate(21.409655, 22.004224)"><g><path d="M 2.765625 0 L 2.625 0 C 2.539062 0 2.484375 -0.046875 2.453125 -0.140625 L 2.03125 -2.03125 L 2.015625 -2.03125 L 1.59375 -0.140625 C 1.570312 -0.046875 1.515625 0 1.421875 0 L 1.28125 0 C 1.1875 0 1.125 -0.046875 1.09375 -0.140625 L 0.421875 -2.375 L 0.1875 -2.375 C 0.15625 -2.375 0.140625 -2.390625 0.140625 -2.421875 L 0.140625 -2.609375 C 0.140625 -2.640625 0.15625 -2.65625 0.1875 -2.65625 L 1.015625 -2.65625 C 1.046875 -2.65625 1.0625 -2.640625 1.0625 -2.609375 L 1.0625 -2.421875 C 1.0625 -2.390625 1.046875 -2.375 1.015625 -2.375 L 0.765625 -2.375 L 1.34375 -0.390625 L 1.359375 -0.390625 L 1.875 -2.65625 L 2.171875 -2.65625 L 2.6875 -0.390625 L 2.703125 -0.390625 L 3.28125 -2.375 L 3.015625 -2.375 C 2.992188 -2.375 2.984375 -2.390625 2.984375 -2.421875 L 2.984375 -2.609375 C 2.984375 -2.640625 2.992188 -2.65625 3.015625 -2.65625 L 3.859375 -2.65625 C 3.890625 -2.65625 3.90625 -2.640625 3.90625 -2.609375 L 3.90625 -2.421875 C 3.90625 -2.390625 3.890625 -2.375 3.859375 -2.375 L 3.625 -2.375 L 2.9375 -0.140625 C 2.914062 -0.046875 2.859375 0 2.765625 0 Z M 2.765625 0 "/></g></g></g><g fill="#ffffff" fill-opacity="1"><g transform="translate(25.649406, 22.004224)"><g><path d="M 2.1875 0 L 0.21875 0 C 0.1875 0 0.171875 -0.015625 0.171875 -0.046875 L 0.171875 -0.234375 C 0.171875 -0.265625 0.1875 -0.28125 0.21875 -0.28125 L 0.5 -0.28125 L 0.5 -2.375 L 0.21875 -2.375 C 0.1875 -2.375 0.171875 -2.390625 0.171875 -2.421875 L 0.171875 -2.609375 C 0.171875 -2.640625 0.1875 -2.65625 0.21875 -2.65625 L 2.1875 -2.65625 C 2.21875 -2.65625 2.234375 -2.640625 2.234375 -2.609375 L 2.234375 -2.015625 C 2.234375 -1.984375 2.21875 -1.96875 2.1875 -1.96875 L 2 -1.96875 C 1.96875 -1.96875 1.953125 -1.984375 1.953125 -2.015625 L 1.953125 -2.375 L 0.828125 -2.375 L 0.828125 -1.46875 L 1.765625 -1.46875 C 1.796875 -1.46875 1.8125 -1.453125 1.8125 -1.421875 L 1.8125 -1.234375 C 1.8125 -1.203125 1.796875 -1.1875 1.765625 -1.1875 L 0.828125 -1.1875 L 0.828125 -0.28125 L 1.9375 -0.28125 L 1.9375 -0.640625 C 1.9375 -0.671875 1.957031 -0.6875 2 -0.6875 L 2.1875 -0.6875 C 2.21875 -0.6875 2.234375 -0.671875 2.234375 -0.640625 L 2.234375 -0.046875 C 2.234375 -0.015625 2.21875 0 2.1875 0 Z M 2.1875 0 "/></g></g></g><g fill="#ffffff" fill-opacity="1"><g transform="translate(28.254778, 22.004224)"><g><path d="M 1.421875 0 L 0.21875 0 C 0.1875 0 0.171875 -0.015625 0.171875 -0.046875 L 0.171875 -0.234375 C 0.171875 -0.265625 0.1875 -0.28125 0.21875 -0.28125 L 0.5 -0.28125 L 0.5 -2.375 L 0.21875 -2.375 C 0.1875 -2.375 0.171875 -2.390625 0.171875 -2.421875 L 0.171875 -2.609375 C 0.171875 -2.640625 0.1875 -2.65625 0.21875 -2.65625 L 1.421875 -2.65625 C 1.660156 -2.65625 1.847656 -2.585938 1.984375 -2.453125 C 2.128906 -2.328125 2.203125 -2.160156 2.203125 -1.953125 C 2.203125 -1.703125 2.09375 -1.515625 1.875 -1.390625 C 2.1875 -1.296875 2.34375 -1.085938 2.34375 -0.765625 C 2.34375 -0.523438 2.265625 -0.335938 2.109375 -0.203125 C 1.953125 -0.0664062 1.722656 0 1.421875 0 Z M 0.828125 -0.28125 L 1.390625 -0.28125 C 1.585938 -0.28125 1.738281 -0.320312 1.84375 -0.40625 C 1.957031 -0.488281 2.015625 -0.613281 2.015625 -0.78125 C 2.015625 -1.09375 1.816406 -1.25 1.421875 -1.25 L 0.828125 -1.25 Z M 0.828125 -1.5 L 1.390625 -1.5 C 1.523438 -1.5 1.640625 -1.53125 1.734375 -1.59375 C 1.828125 -1.664062 1.875 -1.78125 1.875 -1.9375 C 1.875 -2.09375 1.820312 -2.203125 1.71875 -2.265625 C 1.625 -2.335938 1.503906 -2.375 1.359375 -2.375 L 0.828125 -2.375 Z M 0.828125 -1.5 "/></g></g></g><g fill="#ffffff" fill-opacity="1"><g transform="translate(30.963919, 22.004224)"><g/></g></g><g fill="#ffffff" fill-opacity="1"><g transform="translate(32.309223, 22.004224)"><g><path d="M 1.5 -1.40625 L 1.5 -1.390625 C 1.59375 -1.390625 1.695312 -1.347656 1.8125 -1.265625 C 1.875 -1.222656 1.925781 -1.15625 1.96875 -1.0625 C 2.019531 -0.96875 2.046875 -0.859375 2.046875 -0.734375 C 2.046875 -0.503906 1.953125 -0.316406 1.765625 -0.171875 C 1.585938 -0.0351562 1.351562 0.03125 1.0625 0.03125 C 0.914062 0.03125 0.800781 0.015625 0.71875 -0.015625 C 0.632812 -0.046875 0.566406 -0.0703125 0.515625 -0.09375 C 0.460938 -0.125 0.421875 -0.148438 0.390625 -0.171875 C 0.367188 -0.191406 0.335938 -0.21875 0.296875 -0.25 C 0.253906 -0.28125 0.21875 -0.320312 0.1875 -0.375 L 0.15625 -0.40625 C 0.144531 -0.414062 0.140625 -0.425781 0.140625 -0.4375 C 0.140625 -0.445312 0.144531 -0.457031 0.15625 -0.46875 L 0.3125 -0.625 C 0.332031 -0.632812 0.359375 -0.632812 0.390625 -0.625 L 0.4375 -0.5625 C 0.550781 -0.4375 0.648438 -0.359375 0.734375 -0.328125 C 0.835938 -0.296875 0.945312 -0.28125 1.0625 -0.28125 C 1.257812 -0.28125 1.414062 -0.320312 1.53125 -0.40625 C 1.644531 -0.5 1.703125 -0.625 1.703125 -0.78125 C 1.703125 -1.09375 1.488281 -1.25 1.0625 -1.25 L 0.921875 -1.25 C 0.890625 -1.25 0.875 -1.265625 0.875 -1.296875 L 0.875 -1.46875 C 0.875 -1.5 0.890625 -1.515625 0.921875 -1.515625 L 1.046875 -1.515625 C 1.171875 -1.515625 1.28125 -1.53125 1.375 -1.5625 C 1.539062 -1.644531 1.625 -1.769531 1.625 -1.9375 C 1.625 -2.070312 1.578125 -2.179688 1.484375 -2.265625 C 1.390625 -2.347656 1.253906 -2.390625 1.078125 -2.390625 C 0.910156 -2.390625 0.785156 -2.34375 0.703125 -2.25 C 0.617188 -2.164062 0.578125 -2.066406 0.578125 -1.953125 C 0.578125 -1.921875 0.5625 -1.90625 0.53125 -1.90625 L 0.3125 -1.90625 C 0.28125 -1.90625 0.265625 -1.921875 0.265625 -1.953125 C 0.265625 -2.171875 0.335938 -2.347656 0.484375 -2.484375 C 0.628906 -2.617188 0.835938 -2.6875 1.109375 -2.6875 C 1.378906 -2.6875 1.585938 -2.613281 1.734375 -2.46875 C 1.878906 -2.320312 1.953125 -2.160156 1.953125 -1.984375 C 1.953125 -1.804688 1.894531 -1.664062 1.78125 -1.5625 C 1.675781 -1.457031 1.582031 -1.40625 1.5 -1.40625 Z M 1.5 -1.40625 "/></g></g></g><g fill="#ffffff" fill-opacity="1"><g transform="translate(34.68111, 22.004224)"><g><path d="M 0.40625 -0.265625 C 0.4375 -0.234375 0.453125 -0.191406 0.453125 -0.140625 C 0.453125 -0.0976562 0.4375 -0.0546875 0.40625 -0.015625 C 0.375 0.015625 0.332031 0.03125 0.28125 0.03125 C 0.226562 0.03125 0.1875 0.015625 0.15625 -0.015625 C 0.125 -0.0546875 0.109375 -0.0976562 0.109375 -0.140625 C 0.109375 -0.191406 0.125 -0.234375 0.15625 -0.265625 C 0.1875 -0.304688 0.226562 -0.328125 0.28125 -0.328125 C 0.332031 -0.328125 0.375 -0.304688 0.40625 -0.265625 Z M 0.40625 -0.265625 "/></g></g></g><g fill="#ffffff" fill-opacity="1"><g transform="translate(35.426029, 22.004224)"><g><path d="M 2 -0.34375 C 1.8125 -0.09375 1.546875 0.03125 1.203125 0.03125 C 0.867188 0.03125 0.609375 -0.09375 0.421875 -0.34375 C 0.234375 -0.59375 0.140625 -0.921875 0.140625 -1.328125 C 0.140625 -1.734375 0.234375 -2.0625 0.421875 -2.3125 C 0.617188 -2.5625 0.878906 -2.6875 1.203125 -2.6875 C 1.535156 -2.6875 1.796875 -2.5625 1.984375 -2.3125 C 2.179688 -2.0625 2.28125 -1.734375 2.28125 -1.328125 C 2.28125 -0.921875 2.1875 -0.59375 2 -0.34375 Z M 0.671875 -0.546875 C 0.804688 -0.367188 0.984375 -0.28125 1.203125 -0.28125 C 1.429688 -0.28125 1.609375 -0.367188 1.734375 -0.546875 C 1.867188 -0.734375 1.9375 -0.992188 1.9375 -1.328125 C 1.9375 -1.660156 1.867188 -1.921875 1.734375 -2.109375 C 1.609375 -2.296875 1.429688 -2.390625 1.203125 -2.390625 C 0.984375 -2.390625 0.804688 -2.296875 0.671875 -2.109375 C 0.546875 -1.921875 0.484375 -1.660156 0.484375 -1.328125 C 0.484375 -0.992188 0.546875 -0.734375 0.671875 -0.546875 Z M 0.671875 -0.546875 "/></g></g></g><g fill="#ffffff" fill-opacity="1"><g transform="translate(38.035105, 22.004224)"><g/></g></g><g fill="#ffffff" fill-opacity="1"><g transform="translate(39.380409, 22.004224)"><g><path d="M 1.265625 0 L 0.203125 0 C 0.171875 0 0.15625 -0.015625 0.15625 -0.046875 L 0.15625 -0.234375 C 0.15625 -0.265625 0.171875 -0.28125 0.203125 -0.28125 L 0.484375 -0.28125 L 0.484375 -2.375 L 0.203125 -2.375 C 0.171875 -2.375 0.15625 -2.390625 0.15625 -2.421875 L 0.15625 -2.609375 C 0.15625 -2.640625 0.171875 -2.65625 0.203125 -2.65625 L 1.203125 -2.65625 C 1.609375 -2.65625 1.929688 -2.535156 2.171875 -2.296875 C 2.421875 -2.066406 2.546875 -1.742188 2.546875 -1.328125 C 2.546875 -0.921875 2.429688 -0.597656 2.203125 -0.359375 C 1.972656 -0.117188 1.660156 0 1.265625 0 Z M 0.8125 -0.28125 L 1.171875 -0.28125 C 1.859375 -0.28125 2.203125 -0.628906 2.203125 -1.328125 C 2.203125 -1.660156 2.113281 -1.914062 1.9375 -2.09375 C 1.757812 -2.28125 1.503906 -2.375 1.171875 -2.375 L 0.8125 -2.375 Z M 0.8125 -0.28125 "/></g></g></g><g fill="#ffffff" fill-opacity="1"><g transform="translate(42.308209, 22.004224)"><g><path d="M 2.1875 0 L 0.21875 0 C 0.1875 0 0.171875 -0.015625 0.171875 -0.046875 L 0.171875 -0.234375 C 0.171875 -0.265625 0.1875 -0.28125 0.21875 -0.28125 L 0.5 -0.28125 L 0.5 -2.375 L 0.21875 -2.375 C 0.1875 -2.375 0.171875 -2.390625 0.171875 -2.421875 L 0.171875 -2.609375 C 0.171875 -2.640625 0.1875 -2.65625 0.21875 -2.65625 L 2.1875 -2.65625 C 2.21875 -2.65625 2.234375 -2.640625 2.234375 -2.609375 L 2.234375 -2.015625 C 2.234375 -1.984375 2.21875 -1.96875 2.1875 -1.96875 L 2 -1.96875 C 1.96875 -1.96875 1.953125 -1.984375 1.953125 -2.015625 L 1.953125 -2.375 L 0.828125 -2.375 L 0.828125 -1.46875 L 1.765625 -1.46875 C 1.796875 -1.46875 1.8125 -1.453125 1.8125 -1.421875 L 1.8125 -1.234375 C 1.8125 -1.203125 1.796875 -1.1875 1.765625 -1.1875 L 0.828125 -1.1875 L 0.828125 -0.28125 L 1.9375 -0.28125 L 1.9375 -0.640625 C 1.9375 -0.671875 1.957031 -0.6875 2 -0.6875 L 2.1875 -0.6875 C 2.21875 -0.6875 2.234375 -0.671875 2.234375 -0.640625 L 2.234375 -0.046875 C 2.234375 -0.015625 2.21875 0 2.1875 0 Z M 2.1875 0 "/></g></g></g><g fill="#ffffff" fill-opacity="1"><g transform="translate(44.913583, 22.004224)"><g><path d="M 1.640625 0 L 1.5 0 C 1.445312 0 1.410156 -0.0078125 1.390625 -0.03125 C 1.367188 -0.0507812 1.347656 -0.0859375 1.328125 -0.140625 L 0.46875 -2.375 L 0.21875 -2.375 C 0.1875 -2.375 0.171875 -2.390625 0.171875 -2.421875 L 0.171875 -2.609375 C 0.171875 -2.640625 0.1875 -2.65625 0.21875 -2.65625 L 1.0625 -2.65625 C 1.09375 -2.65625 1.109375 -2.640625 1.109375 -2.609375 L 1.109375 -2.421875 C 1.109375 -2.390625 1.09375 -2.375 1.0625 -2.375 L 0.8125 -2.375 L 1.5625 -0.390625 L 1.578125 -0.390625 L 2.328125 -2.375 L 2.078125 -2.375 C 2.046875 -2.375 2.03125 -2.390625 2.03125 -2.421875 L 2.03125 -2.609375 C 2.03125 -2.640625 2.046875 -2.65625 2.078125 -2.65625 L 2.921875 -2.65625 C 2.953125 -2.65625 2.96875 -2.640625 2.96875 -2.609375 L 2.96875 -2.421875 C 2.96875 -2.390625 2.953125 -2.375 2.921875 -2.375 L 2.671875 -2.375 L 1.8125 -0.140625 C 1.789062 -0.0976562 1.769531 -0.0625 1.75 -0.03125 C 1.726562 -0.0078125 1.691406 0 1.640625 0 Z M 1.640625 0 "/></g></g></g><g fill="#ffffff" fill-opacity="1"><g transform="translate(48.24164, 22.004224)"><g><path d="M 2.1875 0 L 0.21875 0 C 0.1875 0 0.171875 -0.015625 0.171875 -0.046875 L 0.171875 -0.234375 C 0.171875 -0.265625 0.1875 -0.28125 0.21875 -0.28125 L 0.5 -0.28125 L 0.5 -2.375 L 0.21875 -2.375 C 0.1875 -2.375 0.171875 -2.390625 0.171875 -2.421875 L 0.171875 -2.609375 C 0.171875 -2.640625 0.1875 -2.65625 0.21875 -2.65625 L 2.1875 -2.65625 C 2.21875 -2.65625 2.234375 -2.640625 2.234375 -2.609375 L 2.234375 -2.015625 C 2.234375 -1.984375 2.21875 -1.96875 2.1875 -1.96875 L 2 -1.96875 C 1.96875 -1.96875 1.953125 -1.984375 1.953125 -2.015625 L 1.953125 -2.375 L 0.828125 -2.375 L 0.828125 -1.46875 L 1.765625 -1.46875 C 1.796875 -1.46875 1.8125 -1.453125 1.8125 -1.421875 L 1.8125 -1.234375 C 1.8125 -1.203125 1.796875 -1.1875 1.765625 -1.1875 L 0.828125 -1.1875 L 0.828125 -0.28125 L 1.9375 -0.28125 L 1.9375 -0.640625 C 1.9375 -0.671875 1.957031 -0.6875 2 -0.6875 L 2.1875 -0.6875 C 2.21875 -0.6875 2.234375 -0.671875 2.234375 -0.640625 L 2.234375 -0.046875 C 2.234375 -0.015625 2.21875 0 2.1875 0 Z M 2.1875 0 "/></g></g></g><g fill="#ffffff" fill-opacity="1"><g transform="translate(50.847014, 22.004224)"><g><path d="M 2.25 0 L 0.21875 0 C 0.1875 0 0.171875 -0.015625 0.171875 -0.046875 L 0.171875 -0.234375 C 0.171875 -0.265625 0.1875 -0.28125 0.21875 -0.28125 L 0.5 -0.28125 L 0.5 -2.375 L 0.21875 -2.375 C 0.1875 -2.375 0.171875 -2.390625 0.171875 -2.421875 L 0.171875 -2.609375 C 0.171875 -2.640625 0.1875 -2.65625 0.21875 -2.65625 L 1.109375 -2.65625 C 1.140625 -2.65625 1.15625 -2.640625 1.15625 -2.609375 L 1.15625 -2.421875 C 1.15625 -2.390625 1.140625 -2.375 1.109375 -2.375 L 0.828125 -2.375 L 0.828125 -0.28125 L 2 -0.28125 L 2 -0.640625 C 2 -0.671875 2.019531 -0.6875 2.0625 -0.6875 L 2.25 -0.6875 C 2.28125 -0.6875 2.296875 -0.671875 2.296875 -0.640625 L 2.296875 -0.046875 C 2.296875 -0.015625 2.28125 0 2.25 0 Z M 2.25 0 "/></g></g></g><g fill="#ffffff" fill-opacity="1"><g transform="translate(53.515389, 22.004224)"><g><path d="M 2.75 -1.34375 C 2.75 -0.9375 2.628906 -0.601562 2.390625 -0.34375 C 2.148438 -0.09375 1.84375 0.03125 1.46875 0.03125 C 1.101562 0.03125 0.796875 -0.09375 0.546875 -0.34375 C 0.296875 -0.601562 0.171875 -0.9375 0.171875 -1.34375 C 0.171875 -1.75 0.296875 -2.070312 0.546875 -2.3125 C 0.804688 -2.5625 1.113281 -2.6875 1.46875 -2.6875 C 1.820312 -2.6875 2.125 -2.5625 2.375 -2.3125 C 2.625 -2.070312 2.75 -1.75 2.75 -1.34375 Z M 0.8125 -0.5625 C 1 -0.375 1.21875 -0.28125 1.46875 -0.28125 C 1.71875 -0.28125 1.9375 -0.375 2.125 -0.5625 C 2.3125 -0.75 2.40625 -1.003906 2.40625 -1.328125 C 2.40625 -1.660156 2.3125 -1.921875 2.125 -2.109375 C 1.9375 -2.296875 1.71875 -2.390625 1.46875 -2.390625 C 1.226562 -2.390625 1.007812 -2.296875 0.8125 -2.109375 C 0.625 -1.921875 0.53125 -1.660156 0.53125 -1.328125 C 0.53125 -1.003906 0.625 -0.75 0.8125 -0.5625 Z M 0.8125 -0.5625 "/></g></g></g><g fill="#ffffff" fill-opacity="1"><g transform="translate(56.639613, 22.004224)"><g><path d="M 1.1875 0 L 0.21875 0 C 0.1875 0 0.171875 -0.015625 0.171875 -0.046875 L 0.171875 -0.234375 C 0.171875 -0.265625 0.1875 -0.28125 0.21875 -0.28125 L 0.5 -0.28125 L 0.5 -2.375 L 0.21875 -2.375 C 0.1875 -2.375 0.171875 -2.390625 0.171875 -2.421875 L 0.171875 -2.609375 C 0.171875 -2.640625 0.1875 -2.65625 0.21875 -2.65625 L 1.359375 -2.65625 C 1.628906 -2.65625 1.847656 -2.578125 2.015625 -2.421875 C 2.179688 -2.273438 2.265625 -2.070312 2.265625 -1.8125 C 2.265625 -1.550781 2.179688 -1.347656 2.015625 -1.203125 C 1.847656 -1.066406 1.617188 -1 1.328125 -1 L 0.828125 -1 L 0.828125 -0.28125 L 1.1875 -0.28125 C 1.21875 -0.28125 1.234375 -0.265625 1.234375 -0.234375 L 1.234375 -0.046875 C 1.234375 -0.015625 1.21875 0 1.1875 0 Z M 0.828125 -1.265625 L 1.3125 -1.265625 C 1.726562 -1.265625 1.9375 -1.445312 1.9375 -1.8125 C 1.9375 -2 1.875 -2.140625 1.75 -2.234375 C 1.632812 -2.328125 1.488281 -2.375 1.3125 -2.375 L 0.828125 -2.375 Z M 0.828125 -1.265625 "/></g></g></g><g fill="#ffffff" fill-opacity="1"><g transform="translate(59.263516, 22.004224)"><g><path d="M 3.1875 0 L 2.328125 0 C 2.296875 0 2.28125 -0.015625 2.28125 -0.046875 L 2.28125 -0.234375 C 2.28125 -0.265625 2.296875 -0.28125 2.328125 -0.28125 L 2.578125 -0.28125 L 2.578125 -2.125 L 2.5625 -2.125 L 1.859375 -0.375 C 1.835938 -0.300781 1.785156 -0.265625 1.703125 -0.265625 C 1.617188 -0.265625 1.566406 -0.300781 1.546875 -0.375 L 0.84375 -2.125 L 0.828125 -2.125 L 0.828125 -0.28125 L 1.078125 -0.28125 C 1.109375 -0.28125 1.125 -0.265625 1.125 -0.234375 L 1.125 -0.046875 C 1.125 -0.015625 1.109375 0 1.078125 0 L 0.21875 0 C 0.1875 0 0.171875 -0.015625 0.171875 -0.046875 L 0.171875 -0.234375 C 0.171875 -0.265625 0.1875 -0.28125 0.21875 -0.28125 L 0.5 -0.28125 L 0.5 -2.375 L 0.21875 -2.375 C 0.1875 -2.375 0.171875 -2.390625 0.171875 -2.421875 L 0.171875 -2.609375 C 0.171875 -2.640625 0.1875 -2.65625 0.21875 -2.65625 L 0.796875 -2.65625 C 0.878906 -2.65625 0.9375 -2.613281 0.96875 -2.53125 L 1.515625 -1.203125 L 1.703125 -0.734375 C 1.773438 -0.921875 1.832031 -1.070312 1.875 -1.1875 L 2.4375 -2.53125 C 2.46875 -2.613281 2.523438 -2.65625 2.609375 -2.65625 L 3.1875 -2.65625 C 3.207031 -2.65625 3.21875 -2.640625 3.21875 -2.609375 L 3.21875 -2.421875 C 3.21875 -2.390625 3.207031 -2.375 3.1875 -2.375 L 2.890625 -2.375 L 2.890625 -0.28125 L 3.1875 -0.28125 C 3.207031 -0.28125 3.21875 -0.265625 3.21875 -0.234375 L 3.21875 -0.046875 C 3.21875 -0.015625 3.207031 0 3.1875 0 Z M 3.1875 0 "/></g></g></g><g fill="#ffffff" fill-opacity="1"><g transform="translate(62.854705, 22.004224)"><g><path d="M 2.1875 0 L 0.21875 0 C 0.1875 0 0.171875 -0.015625 0.171875 -0.046875 L 0.171875 -0.234375 C 0.171875 -0.265625 0.1875 -0.28125 0.21875 -0.28125 L 0.5 -0.28125 L 0.5 -2.375 L 0.21875 -2.375 C 0.1875 -2.375 0.171875 -2.390625 0.171875 -2.421875 L 0.171875 -2.609375 C 0.171875 -2.640625 0.1875 -2.65625 0.21875 -2.65625 L 2.1875 -2.65625 C 2.21875 -2.65625 2.234375 -2.640625 2.234375 -2.609375 L 2.234375 -2.015625 C 2.234375 -1.984375 2.21875 -1.96875 2.1875 -1.96875 L 2 -1.96875 C 1.96875 -1.96875 1.953125 -1.984375 1.953125 -2.015625 L 1.953125 -2.375 L 0.828125 -2.375 L 0.828125 -1.46875 L 1.765625 -1.46875 C 1.796875 -1.46875 1.8125 -1.453125 1.8125 -1.421875 L 1.8125 -1.234375 C 1.8125 -1.203125 1.796875 -1.1875 1.765625 -1.1875 L 0.828125 -1.1875 L 0.828125 -0.28125 L 1.9375 -0.28125 L 1.9375 -0.640625 C 1.9375 -0.671875 1.957031 -0.6875 2 -0.6875 L 2.1875 -0.6875 C 2.21875 -0.6875 2.234375 -0.671875 2.234375 -0.640625 L 2.234375 -0.046875 C 2.234375 -0.015625 2.21875 0 2.1875 0 Z M 2.1875 0 "/></g></g></g><g fill="#ffffff" fill-opacity="1"><g transform="translate(65.460079, 22.004224)"><g><path d="M 2.484375 0 L 2.28125 0 C 2.226562 0 2.1875 -0.0078125 2.15625 -0.03125 C 2.132812 -0.0507812 2.113281 -0.078125 2.09375 -0.109375 L 1.015625 -1.78125 L 0.84375 -2.09375 L 0.828125 -2.09375 L 0.828125 -0.28125 L 1.109375 -0.28125 C 1.140625 -0.28125 1.15625 -0.265625 1.15625 -0.234375 L 1.15625 -0.046875 C 1.15625 -0.015625 1.140625 0 1.109375 0 L 0.21875 0 C 0.1875 0 0.171875 -0.015625 0.171875 -0.046875 L 0.171875 -0.234375 C 0.171875 -0.265625 0.1875 -0.28125 0.21875 -0.28125 L 0.5 -0.28125 L 0.5 -2.375 L 0.21875 -2.375 C 0.1875 -2.375 0.171875 -2.390625 0.171875 -2.421875 L 0.171875 -2.609375 C 0.171875 -2.640625 0.1875 -2.65625 0.21875 -2.65625 L 0.75 -2.65625 C 0.820312 -2.65625 0.882812 -2.613281 0.9375 -2.53125 L 1.984375 -0.875 L 2.203125 -0.515625 L 2.203125 -2.375 L 1.921875 -2.375 C 1.890625 -2.375 1.875 -2.390625 1.875 -2.421875 L 1.875 -2.609375 C 1.875 -2.640625 1.890625 -2.65625 1.921875 -2.65625 L 2.8125 -2.65625 C 2.84375 -2.65625 2.859375 -2.640625 2.859375 -2.609375 L 2.859375 -2.421875 C 2.859375 -2.390625 2.84375 -2.375 2.8125 -2.375 L 2.53125 -2.375 L 2.53125 -0.046875 C 2.53125 -0.015625 2.515625 0 2.484375 0 Z M 2.484375 0 "/></g></g></g><g fill="#ffffff" fill-opacity="1"><g transform="translate(68.684367, 22.004224)"><g><path d="M 1.765625 0 L 0.90625 0 C 0.875 0 0.859375 -0.015625 0.859375 -0.046875 L 0.859375 -0.234375 C 0.859375 -0.265625 0.875 -0.28125 0.90625 -0.28125 L 1.1875 -0.28125 L 1.1875 -2.375 L 0.484375 -2.375 L 0.484375 -1.984375 C 0.484375 -1.953125 0.46875 -1.9375 0.4375 -1.9375 L 0.234375 -1.9375 C 0.191406 -1.9375 0.171875 -1.953125 0.171875 -1.984375 L 0.171875 -2.609375 C 0.171875 -2.640625 0.191406 -2.65625 0.234375 -2.65625 L 2.46875 -2.65625 C 2.5 -2.65625 2.515625 -2.640625 2.515625 -2.609375 L 2.515625 -1.984375 C 2.515625 -1.953125 2.5 -1.9375 2.46875 -1.9375 L 2.25 -1.9375 C 2.21875 -1.9375 2.203125 -1.953125 2.203125 -1.984375 L 2.203125 -2.375 L 1.515625 -2.375 L 1.515625 -0.28125 L 1.765625 -0.28125 C 1.804688 -0.28125 1.828125 -0.265625 1.828125 -0.234375 L 1.828125 -0.046875 C 1.828125 -0.015625 1.804688 0 1.765625 0 Z M 1.765625 0 "/></g></g></g><g fill="#ffffff" fill-opacity="1"><g transform="translate(71.568037, 22.004224)"><g/></g></g></svg>